<?xml version="1.0" encoding="UTF-8" standalone="no"?>
<!-- Created with Inkscape (http://www.inkscape.org/) -->

<svg
   width="1440"
   height="1440"
   viewBox="0 0 380.99999 381"
   version="1.1"
   id="svg1"
   xml:space="preserve"
   inkscape:version="1.3 (0e150ed6c4, 2023-07-21)"
   sodipodi:docname="logo.svg"
   inkscape:export-filename="logo.svg"
   inkscape:export-xdpi="96"
   inkscape:export-ydpi="96"
   xmlns:inkscape="http://www.inkscape.org/namespaces/inkscape"
   xmlns:sodipodi="http://sodipodi.sourceforge.net/DTD/sodipodi-0.dtd"
   xmlns:xlink="http://www.w3.org/1999/xlink"
   xmlns="http://www.w3.org/2000/svg"
   xmlns:svg="http://www.w3.org/2000/svg"><sodipodi:namedview
     id="namedview1"
     pagecolor="#505050"
     bordercolor="#ffffff"
     borderopacity="1"
     inkscape:showpageshadow="0"
     inkscape:pageopacity="0"
     inkscape:pagecheckerboard="1"
     inkscape:deskcolor="#505050"
     inkscape:document-units="mm"
     inkscape:zoom="0.35355339"
     inkscape:cx="914.99617"
     inkscape:cy="584.0702"
     inkscape:window-width="2560"
     inkscape:window-height="1417"
     inkscape:window-x="-8"
     inkscape:window-y="-8"
     inkscape:window-maximized="1"
     inkscape:current-layer="layer1" /><defs
     id="defs1"><linearGradient
       inkscape:collect="always"
       id="linearGradient9"><stop
         style="stop-color:#7e5a27;stop-opacity:1;"
         offset="0"
         id="stop8" /><stop
         style="stop-color:#e6d264;stop-opacity:1;"
         offset="1"
         id="stop9" /></linearGradient><linearGradient
       inkscape:collect="always"
       id="linearGradient7"><stop
         style="stop-color:#7e5a28;stop-opacity:1;"
         offset="0"
         id="stop6" /><stop
         style="stop-color:#e6d264;stop-opacity:1;"
         offset="1"
         id="stop7" /></linearGradient><linearGradient
       id="linearGradient2"
       inkscape:collect="always"><stop
         style="stop-color:#e6d264;stop-opacity:1;"
         offset="0"
         id="stop2" /><stop
         style="stop-color:#7e5a28;stop-opacity:1;"
         offset="1"
         id="stop3" /></linearGradient><linearGradient
       inkscape:collect="always"
       id="linearGradient10771"><stop
         style="stop-color:#7f5c27;stop-opacity:1;"
         offset="0"
         id="stop10767" /><stop
         style="stop-color:#e6d264;stop-opacity:1;"
         offset="1"
         id="stop10769" /></linearGradient><linearGradient
       inkscape:collect="always"
       xlink:href="#linearGradient10771"
       id="linearGradient6086"
       x1="45.456696"
       y1="136.93648"
       x2="188.11182"
       y2="136.93648"
       gradientUnits="userSpaceOnUse" /><linearGradient
       inkscape:collect="always"
       xlink:href="#linearGradient9"
       id="linearGradient9137"
       x1="45.675964"
       y1="278.2944"
       x2="188.73303"
       y2="278.2944"
       gradientUnits="userSpaceOnUse" /><linearGradient
       inkscape:collect="always"
       xlink:href="#linearGradient7"
       id="linearGradient10734"
       gradientUnits="userSpaceOnUse"
       x1="45.675964"
       y1="278.2944"
       x2="188.73303"
       y2="278.2944"
       gradientTransform="matrix(-1,0,0,1,383.5136,-0.87699678)" /><linearGradient
       inkscape:collect="always"
       xlink:href="#linearGradient2"
       id="linearGradient6"
       x1="195.36174"
       y1="137.63295"
       x2="337.9722"
       y2="137.63295"
       gradientUnits="userSpaceOnUse" /></defs><g
     inkscape:label="Layer 1"
     inkscape:groupmode="layer"
     id="layer1"><g
       inkscape:label="Layer 1"
       id="layer1-3"><path
         style="fill:url(#linearGradient6086);fill-opacity:1;stroke-width:0.276;stroke-opacity:0"
         d="M 49.987752,28.757575 68.69662,39.171689 90.621074,49.987752 120.146,64.31173 l 26.60167,12.862346 8.91595,4.384889 9.20827,4.238728 4.38489,4.969545 5.84652,6.723499 5.5542,5.992683 3.80023,7.74664 2.48478,7.30815 1.02314,7.45431 v 11.40072 l 0.14616,107.72215 h -1.75396 l -4.23873,-2.04629 -106.699001,-52.91101 -7.892804,-4.23873 -9.939084,-5.70035 -5.992685,-5.70036 -3.226406,-5.48504 -1.343586,-7.69979 0.258382,-7.02799 -0.05168,-21.4974 0.103351,-3.82406 1.136883,-2.68717 2.480469,-3.514 2.377114,-2.89388 3.513998,-3.10058 4.34082,-2.27377 4.444175,-1.75699 4.134114,-0.93018 4.134115,-0.10335 h 2.790526 l 5.891114,1.34358 7.958169,2.79053 8.164878,4.23747 13.849288,7.33805 7.95817,4.03076 2.27376,1.65365 4.75423,3.10058 2.79053,3.20394 2.89388,3.10059 3.61735,6.92464 2.58382,6.92464 0.72347,6.30453 -0.62011,3.92741 -1.96371,-1.34359 -5.271,-1.65365 -5.78776,-3.30729 -10.64534,-4.13411 -10.7487,-5.06429 -9.71517,-4.65088 -9.715169,-4.85759 -7.338055,-4.23746 -2.480468,1.55029 0.516765,14.77946 10.438638,5.27099 66.352539,32.34945 c 0,0 1.03353,0.10335 1.03353,-0.62012 0,-0.72347 0,-16.32975 0,-16.32975 v -16.94987 l -0.41341,-16.53646 -0.41341,-10.02523 -1.44694,-5.89111 -3.20394,-5.78776 -6.61458,-5.68441 -8.47494,-4.65087 -11.52384,-5.42603 -27.18181,-13.384195 -18.603515,-8.9917 -9.858454,-5.498904 -5.992686,-6.211927 -5.773438,-7.490855 -3.325209,-6.358093 -3.252126,-7.198529 -1.425091,-5.33495 -0.950058,-5.444572 -0.292328,-4.823381 0.365408,-2.594393 1.38855,-1.132763 z"
         id="path5329" /><path
         style="fill:url(#linearGradient9137);fill-opacity:1;stroke-width:0.276;stroke-opacity:0"
         d="m 53.130259,204.92056 3.654076,-0.40195 2.338607,-1.64434 2.41169,-1.13276 3.252129,0.14616 1.973199,0.87698 1.607793,1.24239 -0.03654,2.66747 1.973202,1.7905 6.504255,2.37515 89.79615,46.71518 1.73116,-0.1292 1.49861,-1.44694 1.11105,-0.87849 1.18855,-0.31006 0.93018,0.8785 -0.23254,1.88619 -0.0258,1.9637 0.2067,1.4211 2.45463,0.85266 1.78284,0.62012 0.0273,1.92291 0.60293,3.43483 3.87332,3.28866 4.60413,0.95007 0.81419,1.0618 1.01285,1.42296 0.54811,1.42509 -0.14616,1.57126 -1.13277,0.43849 -3.50791,-0.0365 -3.47137,0.1827 -2.99634,0.18269 -2.08282,2.92328 -1.16931,2.88671 0.36541,2.37516 1.71741,2.22899 2.15591,2.41167 1.91153,1.61166 2.04122,1.86036 0.90434,1.60195 0.36174,3.1006 -0.25839,1.93786 -1.18855,0.8785 -1.83452,0.12919 -3.30729,-0.51676 -2.0929,-1.24023 -3.02307,-1.08521 -2.79052,-0.2067 -2.48047,0.7493 -1.88619,1.39526 -0.59428,1.47277 -1.13688,2.68719 0.18087,1.86034 -0.9942,6.49227 -0.58465,5.9196 -0.84043,9.09865 -0.0731,15.45674 -1.35201,4.64069 -2.48477,4.20219 -3.28866,1.71741 -4.53106,-1.09622 -5.66382,-0.91353 -24.91327,-9.60268 -2.27376,-1.55027 -0.31006,-1.13689 1.65365,-2.48047 1.24023,-2.79053 0.51677,-4.34081 1.24023,-7.85482 2.58382,-12.7124 1.13689,-9.71519 -0.20671,-4.23746 -3.30729,-4.54752 -5.47771,-1.86034 -8.02159,-4.04019 -5.33495,-3.28866 -2.557852,-3.39831 -0.622059,-5.03418 -0.206706,-2.73883 0.490926,-1.83452 1.188561,-2.63551 1.49861,-1.52445 1.13688,-1.26607 0.25839,-1.98954 c 0,0 -0.59428,-1.44694 -0.74931,-1.47278 -0.15503,-0.0258 -2.32544,-1.65364 -2.32544,-1.65364 l -0.620118,-1.2144 -2.377115,-2.06706 -24.597981,-11.8339 -0.465088,-1.86035 -0.465089,-1.0852 -25.018934,-12.54468 -0.328869,-2.88672 -0.548111,-0.69427 0.548111,-4.67722 2.265529,-6.76004 0.913519,-3.50791 1.863577,-2.66747 z"
         id="path7677" /><path
         style="fill:url(#linearGradient10734);fill-opacity:1;stroke-width:0.276;stroke-opacity:0"
         d="m 330.38334,204.04356 -3.65407,-0.40195 -2.33861,-1.64434 -2.41169,-1.13276 -3.25213,0.14616 -1.9732,0.87698 -1.60779,1.24239 0.0365,2.66747 -1.9732,1.7905 -6.50426,2.37515 -89.79615,46.71518 -1.73116,-0.1292 -1.49861,-1.44694 -1.11105,-0.87849 -1.18855,-0.31006 -0.93018,0.8785 0.23254,1.88619 0.0258,1.9637 -0.2067,1.4211 -2.45463,0.85266 -1.78284,0.62012 -0.0273,1.92291 -0.60293,3.43483 -3.87332,3.28866 -4.60413,0.95007 -0.81419,1.0618 -1.01285,1.42296 -0.54811,1.42509 0.14616,1.57126 1.13277,0.43849 3.50791,-0.0365 3.47137,0.1827 2.99634,0.18269 2.08282,2.92328 1.16931,2.88671 -0.36541,2.37516 -1.71741,2.22899 -2.15591,2.41167 -1.91153,1.61166 -2.04122,1.86036 -0.90434,1.60195 -0.36174,3.1006 0.25839,1.93786 1.18855,0.8785 1.83452,0.12919 3.30729,-0.51676 2.0929,-1.24023 3.02307,-1.08521 2.79052,-0.2067 2.48047,0.7493 1.88619,1.39526 0.59428,1.47277 1.13688,2.68719 -0.18087,1.86034 0.9942,6.49227 0.58465,5.9196 0.84043,9.09865 0.0731,15.45674 1.35201,4.64069 2.48477,4.20219 3.28866,1.71741 4.53106,-1.09622 5.66382,-0.91353 24.91327,-9.60268 2.27376,-1.55027 0.31006,-1.13689 -1.65365,-2.48047 -1.24023,-2.79053 -0.51677,-4.34081 -1.24023,-7.85482 -2.58382,-12.7124 -1.13689,-9.71519 0.20671,-4.23746 3.30729,-4.54752 5.47771,-1.86034 8.02159,-4.04019 5.33495,-3.28866 2.55786,-3.39831 0.62205,-5.03418 0.20671,-2.73883 -0.49093,-1.83452 -1.18856,-2.63551 -1.49861,-1.52445 -1.13688,-1.26607 -0.25839,-1.98954 c 0,0 0.59428,-1.44694 0.74931,-1.47278 0.15503,-0.0258 2.32544,-1.65364 2.32544,-1.65364 l 0.62012,-1.2144 2.37712,-2.06706 24.59798,-11.8339 0.46509,-1.86035 0.46508,-1.0852 25.01894,-12.54468 0.32887,-2.88672 0.54811,-0.69427 -0.54811,-4.67722 -2.26553,-6.76004 -0.91352,-3.50791 -1.86358,-2.66747 z"
         id="path7677-3" /><path
         style="fill:#141414;fill-opacity:1;stroke-width:0.276;stroke-opacity:0"
         d="m 113.73983,283.36771 2.5063,-0.46508 2.27377,-2.14458 1.26607,-1.86034 1.39526,-2.27377 -0.0258,-2.53215 -0.90434,-3.15227 -1.11104,-1.80866 -2.6355,-1.44693 -3.38481,-0.90435 -4.36666,0.46509 -3.25561,1.24023 -1.57613,2.66134 -0.31006,2.89388 1.70532,3.38481 1.47278,2.63549 3.74654,1.80867 z"
         id="path9193" /><path
         style="fill:#141414;fill-opacity:1;stroke-width:0.276;stroke-opacity:0"
         d="m 271.19791,283.39356 7.59643,-4.23748 0.87852,-0.33589 c 0,0 2.35127,-3.8499 0.31004,-7.64813 -2.04121,-3.7982 -1.98953,-4.36665 -4.7284,-4.67669 -2.73883,-0.31007 -4.05659,0.18087 -4.80589,0.59428 -0.74932,0.41341 -4.85759,2.84218 -4.85759,2.84218 l -1.757,1.34361 c 0,0 -3.12642,3.28144 -0.12919,7.13134 2.99723,3.8499 2.558,3.97909 3.74653,4.28913 1.18856,0.31007 1.05939,0.85267 2.11876,0.69765 1.05936,-0.15504 1.62779,0 1.62779,0 z"
         id="path10765" /></g><path
       style="fill:url(#linearGradient6);stroke-width:0.264583"
       d="m 333.34192,29.434895 -18.85156,10.616407 -96.10989,46.599739 -15.70964,17.627859 -3.77031,7.73907 -2.41432,7.17682 -1.02526,7.63984 -0.0992,118.96328 1.75286,0.0331 119.45937,-59.99427 19.67839,-8.83047 1.62057,-2.34818 0.0331,-1.81901 -1.88516,-1.91823 -2.19935,-1.43867 -1.80247,-1.10794 -1.62058,-0.90951 -1.85208,-0.92604 -2.11667,-1.05833 -2.19935,-0.77722 -1.75286,-0.62838 -1.43867,-0.44649 -1.85209,-0.44648 -2.21588,-0.56224 -10.1922,-1.77005 -6.24504,0.0172 -11.48159,1.29244 -5.47235,2.43215 -53.12757,27.43011 -0.7276,-0.0661 -0.52917,-0.19844 v -0.52917 -1.45521 l -0.0661,-32.60989 1.05834,-25.86302 1.45521,-5.68854 3.0427,-5.6224 6.94532,-6.21771 9.3927,-4.69635 57.01771,-27.847398 8.73125,-4.828645 2.38125,-2.348178 4.79557,-5.258593 3.37344,-4.431771 1.75287,-2.447396 1.32291,-2.348177 1.95131,-4.001823 1.62057,-3.63802 1.15755,-2.612761 0.89297,-2.910417 0.76068,-3.208072 0.7276,-3.836459 0.3638,-2.315104 v -2.645833 l 0.0992,-1.5875 -0.23151,-1.389063 -0.26458,-0.661458 -1.12448,-1.091406 z"
       id="path2" /></g></svg>
